<svg xmlns="http://www.w3.org/2000/svg" width="1200" height="120" viewBox="0 0 1200 120" role="img" aria-labelledby="title desc">
<title id="title">CHAPTER III — Save Data</title>
<desc id="desc">Chapter title card: CHAPTER III, Save Data</desc>
<style>.ln{stroke-dasharray:330;stroke-dashoffset:330;animation:draw 1.6s ease-out .2s forwards}@keyframes draw{to{stroke-dashoffset:0}}@media (prefers-reduced-motion:reduce){.ln{stroke-dashoffset:0}}
@media (prefers-reduced-motion:reduce){*{animation:none!important}}</style>
<defs><linearGradient id="plate" x1="0" y1="0" x2="0" y2="1"><stop offset="0" stop-color="#1d1f4d"/><stop offset="1" stop-color="#151132"/></linearGradient><linearGradient id="lf" gradientUnits="userSpaceOnUse" x1="352" y1="0" x2="40" y2="0"><stop offset="0" stop-color="#c99a4e"/><stop offset="1" stop-color="#c99a4e" stop-opacity="0"/></linearGradient><linearGradient id="rf" gradientUnits="userSpaceOnUse" x1="848" y1="0" x2="1160" y2="0"><stop offset="0" stop-color="#c99a4e"/><stop offset="1" stop-color="#c99a4e" stop-opacity="0"/></linearGradient></defs>
<path class="ln" d="M352,60 H22" stroke="url(#lf)" stroke-width="2" fill="none"/>
<path class="ln" d="M848,60 H1178" stroke="url(#rf)" stroke-width="2" fill="none"/>
<path d="M362,54 L368,60 L362,66 L356,60 Z" fill="#d4a55a" opacity="1.0"/><path d="M838,54 L844,60 L838,66 L832,60 Z" fill="#d4a55a" opacity="1.0"/><path d="M250,57 L253,60 L250,63 L247,60 Z" fill="#d4a55a" opacity="0.8"/><path d="M950,57 L953,60 L950,63 L947,60 Z" fill="#d4a55a" opacity="0.8"/>
<rect x="372" y="14" width="456" height="92" rx="14" fill="url(#plate)" stroke="#f2cc8f" stroke-opacity=".55" stroke-width="1.5"/>
<rect x="380" y="22" width="440" height="76" rx="9" fill="none" stroke="#fff" stroke-opacity=".07"/>
<text x="600" y="49" text-anchor="middle" font-family="'Segoe UI', -apple-system, BlinkMacSystemFont, 'Helvetica Neue', Arial, sans-serif" font-size="14" font-weight="bold" letter-spacing="7" fill="#f2cc8f">CHAPTER III</text>
<text x="600" y="88" text-anchor="middle" font-family="Georgia, 'Times New Roman', serif" font-size="34" fill="#f4f1ff">Save Data</text>
</svg>
